<svg version="1.1" width="801" height="601" style="background-color:white;" xmlns="http://www.w3.org/2000/svg">
<style>
.txt1 { font: bold 12px sans-serif; };
</style>
<polygon stroke="rgb(0,0,0)" stroke-width="1" fill="none" points="441.732,434.957 432.664,477.867 404.362,445.39 401.845,422.695 431.499,395.633 "/>
<polygon stroke="rgb(0,0,0)" stroke-width="1" fill="none" points="127.498,524.664 94.3924,532.347 92.0039,512.843 "/>
<polygon stroke="rgb(0,0,0)" stroke-width="1" fill="none" points="412.281,232.392 392.85,259.083 355.824,252.993 360.779,215.392 386.269,225.956 "/>
<polygon stroke="rgb(0,0,0)" stroke-width="1" fill="none" points="512.538,198.016 483.706,212.969 439.466,226.628 441.957,171.213 492.226,156.843 "/>
<polygon stroke="rgb(0,0,0)" stroke-width="1" fill="none" points="681.356,215.169 642.032,256.773 650.308,187.898 "/>
<polygon stroke="rgb(0,0,0)" stroke-width="1" fill="none" points="732.569,457.383 719.776,497.215 683.423,480.517 649.017,457.383 690.957,447.299 719.103,418.717 "/>
<polygon stroke="rgb(0,0,0)" stroke-width="1" fill="none" points="234.926,510.064 208.629,533.306 174.476,529.392 186.8,499.691 213.553,471.67 "/>
<polygon stroke="rgb(0,0,0)" stroke-width="1" fill="none" points="380.354,143.767 347.904,169.782 351.052,123.205 "/>
<polygon stroke="rgb(0,0,0)" stroke-width="1" fill="none" points="178.368,503.402 163.388,512.645 155.077,479.764 "/>
<polygon stroke="rgb(0,0,0)" stroke-width="1" fill="none" points="775.126,517.502 739.326,539.745 700.586,517.502 739.326,495.912 "/>
<polygon stroke="rgb(0,0,0)" stroke-width="1" fill="none" points="314.585,434.115 287.523,439.08 276.691,447.91 273.481,434.115 265.671,401.232 301.929,404.198 "/>
<polygon stroke="rgb(0,0,0)" stroke-width="1" fill="none" points="228.582,342.244 218.512,352.513 193.61,375.107 201.937,342.244 192.23,306.992 218.775,331.519 "/>
<polygon stroke="rgb(0,0,0)" stroke-width="1" fill="none" points="174.66,549.997 137.941,589.01 155.142,540.777 "/>
<polygon stroke="rgb(0,0,0)" stroke-width="1" fill="none" points="727.933,367.856 716.561,407.067 677.373,367.856 716.561,358.649 "/>
<polygon stroke="rgb(0,0,0)" stroke-width="1" fill="none" points="422.293,89.1161 421.252,101.422 401.265,111.428 372.262,89.1161 398.747,62.4431 433.648,55.3401 "/>
<polygon stroke="rgb(0,0,0)" stroke-width="1" fill="none" points="210.278,245.845 177.136,285.681 140.033,263.397 143.671,230.935 167.123,236.825 "/>
<polygon stroke="rgb(0,0,0)" stroke-width="1" fill="none" points="664.565,86.1644 636.109,126.468 643.515,58.6896 "/>
<polygon stroke="rgb(0,0,0)" stroke-width="1" fill="none" points="580.06,364.455 573.467,406.951 526.825,364.455 573.467,320.158 "/>
<polygon stroke="rgb(0,0,0)" stroke-width="1" fill="none" points="670.198,539.717 608.901,579.252 607.095,497.055 "/>
<polygon stroke="rgb(0,0,0)" stroke-width="1" fill="none" points="337.299,339.715 315.81,364.731 281.828,373.558 282.673,339.715 276.542,296.717 316.849,312.9 "/>
<polygon stroke="rgb(0,0,0)" stroke-width="1" fill="none" points="731.158,275.459 724.355,316.493 691.159,289.891 706.86,272.434 717.364,255.941 "/>
<polygon stroke="rgb(0,0,0)" stroke-width="1" fill="none" points="604.183,510.457 563.698,518.44 563.303,501.791 "/>
<polygon stroke="rgb(0,0,0)" stroke-width="1" fill="none" points="330.046,144.875 283.33,149.345 259.633,181.45 260.833,144.875 274.015,133.211 293.071,123.535 "/>
<polygon stroke="rgb(0,0,0)" stroke-width="1" fill="none" points="488.678,346.606 444.686,362.19 433.729,312.043 "/>
<polygon stroke="rgb(0,0,0)" stroke-width="1" fill="none" points="694.057,151.774 668.173,177.462 630.481,191.37 636.016,151.774 639.763,128.255 674.943,114.36 "/>
<polygon stroke="rgb(0,0,0)" stroke-width="1" fill="none" points="134.906,103.924 90.1005,122.424 91.7954,88.3598 "/>
<polygon stroke="rgb(0,0,0)" stroke-width="1" fill="none" points="214.035,392.089 170.666,401.839 160.225,364.255 "/>
<polygon stroke="rgb(0,0,0)" stroke-width="1" fill="none" points="579.914,74.5812 530.009,117.355 536.276,42.6631 "/>
<polygon stroke="rgb(0,0,0)" stroke-width="1" fill="none" points="193.245,491.518 168.835,518.43 148.479,499.955 135.747,473.832 167.562,468.523 "/>
<polygon stroke="rgb(0,0,0)" stroke-width="1" fill="none" points="777.329,159.128 753.191,165.959 746.297,164.239 723.651,159.128 724.588,116.418 759.358,141.617 "/>
<polygon stroke="rgb(0,0,0)" stroke-width="1" fill="none" points="390.952,482.591 381.726,492.071 359.495,482.591 381.726,464.011 "/>
<polygon stroke="rgb(0,0,0)" stroke-width="1" fill="none" points="623.685,115.851 631.886,142.731 600.478,143.371 589.92,115.851 610.046,104.903 632.586,87.7591 "/>
<polygon stroke="rgb(0,0,0)" stroke-width="1" fill="none" points="341.706,222.125 282.704,252.143 291.742,207.761 "/>
<polygon stroke="rgb(0,0,0)" stroke-width="1" fill="none" points="413.671,536.388 404.008,551.11 380.863,561.753 373.624,536.388 387.751,522.952 416.679,499.719 "/>
<polygon stroke="rgb(0,0,0)" stroke-width="1" fill="none" points="507.042,468.052 480.702,480.995 481.219,456.005 "/>
<polygon stroke="rgb(0,0,0)" stroke-width="1" fill="none" points="286.355,267.004 270.961,289.363 241.983,267.004 270.961,237.011 "/>
<polygon stroke="rgb(0,0,0)" stroke-width="1" fill="none" points="127.346,143.808 94.4924,180.322 89.4418,143.808 94.4924,138.551 "/>
<polygon stroke="rgb(0,0,0)" stroke-width="1" fill="none" points="675.958,387.827 623.47,399.605 618.893,368.122 "/>
<polygon stroke="rgb(0,0,0)" stroke-width="1" fill="none" points="308.691,487.155 260.329,516.339 257.594,453.233 "/>
<polygon stroke="rgb(0,0,0)" stroke-width="1" fill="none" points="106.259,457.176 83.9498,490.87 58.6043,457.176 83.9498,445.697 "/>
<polygon stroke="rgb(0,0,0)" stroke-width="1" fill="none" points="484.359,273.371 457.878,323.154 449.536,273.371 457.878,240.01 "/>
<polygon stroke="rgb(0,0,0)" stroke-width="1" fill="none" points="404.863,475.293 356.993,522.994 311.534,475.293 356.993,435.778 "/>
<polygon stroke="rgb(0,0,0)" stroke-width="1" fill="none" points="706.013,423.819 679.602,441.103 632.003,423.819 679.602,413.314 "/>
<polygon stroke="rgb(0,0,0)" stroke-width="1" fill="none" points="70.1059,130.412 46.8148,152.741 54.9371,122.152 "/>
<polygon stroke="rgb(255,0,0)" stroke-width="1" fill="none" points="502.677,85.2785 467.636,106.623 470.862,69.5229 "/>
<polygon stroke="rgb(0,0,0)" stroke-width="1" fill="none" points="644.194,449.22 610.516,470.605 574.703,489.865 551.283,449.22 580.779,419.099 616.415,417.618 "/>
<polygon stroke="rgb(0,0,0)" stroke-width="1" fill="none" points="696.5,323.699 658.247,370.66 642.756,323.699 658.247,277.003 "/>
<polygon stroke="rgb(0,0,0)" stroke-width="1" fill="none" points="556.884,216.446 522.648,250.363 533.923,202.057 "/>
<polygon stroke="rgb(0,0,0)" stroke-width="1" fill="none" points="577.466,162.618 560.578,196.129 531.361,162.618 560.578,156.869 "/>
<polygon stroke="rgb(255,0,0)" stroke-width="1" fill="none" points="497.678,79.4302 476.821,108.307 454.56,88.7867 462.705,75.9911 473.765,59.9594 "/>
<polygon stroke="rgb(0,0,0)" stroke-width="1" fill="none" points="186.632,204.123 162.113,209.368 127.873,204.123 162.113,193.443 "/>
<polygon stroke="rgb(0,0,0)" stroke-width="1" fill="none" points="193.752,438.705 157.4,450.207 141.217,455.233 141.008,438.705 128.269,399.752 155.559,430.391 "/>
<polygon stroke="rgb(0,0,0)" stroke-width="1" fill="none" points="257.172,149.862 256.521,179.821 215.417,191.098 224.238,149.862 225.319,125.777 259.24,115.194 "/>
<polygon stroke="rgb(0,0,0)" stroke-width="1" fill="none" points="293.603,88.3767 242.616,99.438 242.475,77.0712 "/>
<polygon stroke="rgb(0,0,0)" stroke-width="1" fill="none" points="415.641,350.913 382.421,379.778 361.635,359.201 339.755,326.729 383.94,317.374 "/>
<polygon stroke="rgb(0,0,0)" stroke-width="1" fill="none" points="727.05,94.2642 721.127,101.652 675.723,94.2642 721.127,48.7857 "/>
<polygon stroke="rgb(0,0,0)" stroke-width="1" fill="none" points="255.103,323.861 264.263,360.484 235.602,336.881 233.038,323.861 230.433,301.89 264.986,285.986 "/>
<polygon stroke="rgb(0,0,0)" stroke-width="1" fill="none" points="546.428,502.094 539.354,539.053 512.454,512.913 493.834,477.747 531.519,489.247 "/>
<polygon stroke="rgb(255,0,0)" stroke-width="1" fill="none" points="548.622,411.988 522.724,452.458 509.775,411.988 522.724,392.355 "/>
<polygon stroke="rgb(0,0,0)" stroke-width="1" fill="none" points="512.493,141.001 498.421,146.808 487.461,147.594 477.284,127.015 501.031,127.162 "/>
<polygon stroke="rgb(0,0,0)" stroke-width="1" fill="none" points="431.731,173.495 401.933,198.937 393.938,134.205 "/>
<polygon stroke="rgb(0,0,0)" stroke-width="1" fill="none" points="746.561,211.877 717.768,218.489 685.898,233.472 689.836,193.145 717.274,206.785 "/>
<polygon stroke="rgb(0,0,0)" stroke-width="1" fill="none" points="416.632,406.6 385.208,423.621 360.645,406.6 385.208,387.468 "/>
<polygon stroke="rgb(0,0,0)" stroke-width="1" fill="none" points="196.014,113.871 202.126,141 182.603,120.558 177.747,113.871 180.762,103.996 206.267,79.5695 "/>
<polygon stroke="rgb(0,0,0)" stroke-width="1" fill="none" points="241.043,434.561 244.738,460.88 209.025,470.098 206.022,434.561 213.558,406.876 242.129,412.759 "/>
<polygon stroke="rgb(0,0,0)" stroke-width="1" fill="none" points="141.115,284.092 106.269,328.012 86.5257,284.092 106.269,234.725 "/>
<polygon stroke="rgb(0,0,0)" stroke-width="1" fill="none" points="156.037,83.8039 145.657,100.764 130.974,92.2756 119.315,83.8039 113.377,44.8538 158.773,44.1252 "/>
<polygon stroke="rgb(0,0,0)" stroke-width="1" fill="none" points="633.899,68.258 614.528,85.423 592.452,89.3307 598.686,68.258 592.809,47.8043 619.789,41.9809 "/>
<polygon stroke="rgb(0,0,0)" stroke-width="1" fill="none" points="772.744,313.509 740.223,322.09 736.289,298.114 "/>
<polygon stroke="rgb(0,0,0)" stroke-width="1" fill="none" points="307.329,536.573 293.486,569.055 261.571,559.37 264.154,536.573 271.189,530.436 278.364,530.284 "/>
<polygon stroke="rgb(0,0,0)" stroke-width="1" fill="none" points="608.137,318.515 598.773,341.595 581.048,326.134 574.438,318.515 562.067,278.02 598.283,296.283 "/>
<polygon stroke="rgb(255,0,0)" stroke-width="1" fill="none" points="550.552,443.093 533.826,452.893 516.071,464.047 518.516,443.093 512.16,415.365 552.442,401.051 "/>
<polygon stroke="rgb(0,0,0)" stroke-width="1" fill="none" points="527.501,390.085 490.082,404.033 481.387,393.109 477.159,383.989 489.127,379.076 "/>
<polygon stroke="rgb(0,0,0)" stroke-width="1" fill="none" points="86.4664,314.877 79.396,339.352 50.7548,329.908 51.5202,300.402 81.4864,283.968 "/>
<polygon stroke="rgb(0,0,0)" stroke-width="1" fill="none" points="597.847,96.8938 571.937,129.653 579.71,77.5972 "/>
<polygon stroke="rgb(0,0,0)" stroke-width="1" fill="none" points="364.272,535.524 357.224,563.525 339.261,541.965 343.392,532.084 350.53,528.125 "/>
<polygon stroke="rgb(0,0,0)" stroke-width="1" fill="none" points="429.458,229.474 416.632,235.695 405.312,203.644 "/>
<polygon stroke="rgb(0,0,0)" stroke-width="1" fill="none" points="615.375,202.038 615.239,244.596 572.855,222.785 593.008,195.933 604.683,191.965 "/>
<polygon stroke="rgb(0,0,0)" stroke-width="1" fill="none" points="183.511,128.128 171.26,165.501 152.804,128.128 171.26,110.624 "/>
<polygon stroke="rgb(0,0,0)" stroke-width="1" fill="none" points="116.543,403.189 73.1635,428.756 29.6696,403.189 73.1635,376.483 "/>
<polygon stroke="rgb(255,0,0)" stroke-width="1" fill="none" points="361.98,81.4734 340.999,92.3939 328.315,48.5845 "/>
<polygon stroke="rgb(255,0,0)" stroke-width="1" fill="none" points="361.779,54.7351 335.335,66.0495 325.232,60.9198 304.592,54.7351 324.78,47.7667 341.334,33.0302 "/>
<polygon stroke="rgb(0,0,0)" stroke-width="1" fill="none" points="475.663,519.896 430.687,544.237 436.369,505.396 "/>
<polygon stroke="rgb(0,0,0)" stroke-width="1" fill="none" points="389.158,290.441 361.897,305.54 349.672,296.516 319.911,290.441 331.501,252.892 368.241,264.353 "/>
<polygon stroke="rgb(0,0,0)" stroke-width="1" fill="none" points="205.606,176.026 185.913,198.98 183.85,149.498 "/>
<polygon stroke="rgb(0,0,0)" stroke-width="1" fill="none" points="541.655,334.599 501.803,364.093 507.84,315.562 "/>
<polygon stroke="rgb(0,0,0)" stroke-width="1" fill="none" points="661.073,269.586 625.058,306.214 593.34,283.984 588.975,252.017 618.754,252.361 "/>
<polygon stroke="rgb(0,0,0)" stroke-width="1" fill="none" points="113.415,72.727 51.912,115.073 71.0773,63.5764 "/>
<polygon stroke="rgb(0,0,0)" stroke-width="1" fill="none" points="391.035,202.464 373.194,216.461 363.662,202.464 373.194,184.591 "/>
<polygon stroke="rgb(0,0,0)" stroke-width="1" fill="none" points="115.568,222.078 78.5006,236.576 48.1895,260.08 20.2255,222.078 56.7116,198.837 78.6347,207.347 "/>
<polygon stroke="rgb(0,0,0)" stroke-width="1" fill="none" points="642.77,238.798 626.744,255.208 619.008,208.989 "/>
<polygon stroke="rgb(0,0,0)" stroke-width="1" fill="none" points="190.564,298.089 156.53,314.019 140.297,306.122 144.266,292.939 153.329,292.008 "/>
<polygon stroke="rgb(0,0,0)" stroke-width="1" fill="none" points="735.171,165.627 700.437,178.063 696.797,146.885 "/>
<polygon stroke="rgb(0,0,0)" stroke-width="1" fill="none" points="724.032,545.875 697.785,553.622 663.866,568.69 676.613,532.322 698.555,535.759 "/>
<polygon stroke="rgb(0,0,0)" stroke-width="1" fill="none" points="442.307,357.248 434.663,362.872 427.902,357.248 434.663,342.278 "/>
<polygon stroke="rgb(0,0,0)" stroke-width="1" fill="none" points="620.393,457.701 575.255,483.165 573.457,429.123 "/>
<polygon stroke="rgb(0,0,0)" stroke-width="1" fill="none" points="97.6204,544.191 68.5514,572.545 50.6107,550.532 31.153,523.713 68.321,516.545 "/>
<polygon stroke="rgb(0,0,0)" stroke-width="1" fill="none" points="478.247,410.898 452.346,440.408 448.801,375.248 "/>
<polygon stroke="rgb(0,0,0)" stroke-width="1" fill="none" points="426.758,284.838 389.849,289.597 378.35,260.162 "/>
<polygon stroke="rgb(0,0,0)" stroke-width="1" fill="none" points="449.3,384.799 443.69,394.001 437.383,384.799 443.69,377.984 "/>
</svg>
